<svg xmlns="http://www.w3.org/2000/svg" viewBox="0 0 42.5 54.892">
    <defs><style>.a{fill:#fff;}</style></defs>
    <title>Princeton University shield (white)</title>
    <path class="a" d="M16.65,12.117a.307.307,0,0,0-.273.178L15.8,13.573a.113.113,0,0,1-.045.019c-.018,0-.038-.019-.052-.059s-.084-.224-.234-.572l-.185-.418c-.066-.154-.119-.255-.136-.287a.28.28,0,0,0-.241-.14.056.056,0,0,1-.011-.038.076.076,0,0,1,.007-.037H15c.108,0,.2.005.28.005s.252-.009.357-.009H15.7c.01,0,.014.025.014.033a.1.1,0,0,1-.007.042c-.07.007-.227,0-.227.1a.265.265,0,0,0,.014.086l.378.9.315-.743a.462.462,0,0,0,.042-.2c0-.084-.059-.121-.217-.14a.134.134,0,0,1-.01-.035.149.149,0,0,1,.01-.044h.045c.07,0,.14.009.3.009.028,0,.136-.005.189-.005h.108a.069.069,0,0,1,.014.033A.091.091,0,0,1,16.65,12.117Z" transform="translate(0)"/>
    <path class="a" d="M18.248,13.549c-.458,0-.706-.012-.769-.012l-.217,0c-.063,0-.21.01-.371.01l-.091,0a.058.058,0,0,1-.007-.033.188.188,0,0,1,0-.044.542.542,0,0,0,.231-.049.435.435,0,0,0,.049-.231c0-.07,0-.147,0-.225,0-.115,0-.255,0-.425V12.3c0-.166-.084-.166-.255-.185a.224.224,0,0,1-.007-.04c0-.009,0-.033.014-.038h.084c.056,0,.206,0,.493,0,.262,0,.518.005.573.005l.157,0c.035,0,.049,0,.049.035l.021.343c-.021.01-.025.014-.042.014a.105.105,0,0,1-.035,0,.7.7,0,0,0-.227-.262.258.258,0,0,0-.133-.038c-.021,0-.073,0-.2,0-.1,0-.157,0-.171.005s-.014,0-.021.058c0,.037-.007.1-.007.3v.2h.052a.744.744,0,0,0,.171-.017.281.281,0,0,0,.154-.108.624.624,0,0,0,.035-.126.093.093,0,0,1,.049-.01.059.059,0,0,1,.038.012c0,.061-.014.177-.014.323,0,.073.007.234.007.3a.055.055,0,0,1-.042.012.169.169,0,0,1-.042-.005c-.014-.129-.035-.217-.143-.262a.408.408,0,0,0-.168-.032.963.963,0,0,0-.1.007v.4a.491.491,0,0,0,.021.178c.011.026.045.079.091.084a.759.759,0,0,0,.14.01h.217A.431.431,0,0,0,18,13.428a.838.838,0,0,0,.241-.323.1.1,0,0,1,.045-.009.12.12,0,0,1,.045.011v.4C18.329,13.544,18.3,13.549,18.248,13.549Z" transform="translate(0)"/>
    <path class="a" d="M20.067,12.514c-.01,0-.024,0-.042-.005a.975.975,0,0,0-.112-.224.362.362,0,0,0-.28-.147c-.035,0-.119,0-.147,0l0,.666c0,.1,0,.229,0,.458,0,.177.08.177.262.2a.088.088,0,0,1,.014.044.074.074,0,0,1-.01.037h-.067c-.1,0-.315-.007-.381-.007-.045,0-.276.01-.385.01a.05.05,0,0,1-.014-.04.1.1,0,0,1,.011-.04c.241-.018.266-.063.273-.14.007-.049.007-.248.007-.451V12.32a.916.916,0,0,0-.014-.183,1.156,1.156,0,0,0-.234.016.605.605,0,0,0-.3.332.1.1,0,0,1-.038.005.042.042,0,0,1-.035-.016v-.388c0-.035,0-.044.045-.044l.164,0c.052,0,.273,0,.549,0,.364,0,.633-.009.7-.009.035,0,.059,0,.073.012a.283.283,0,0,1,0,.056v.388A.042.042,0,0,1,20.067,12.514Z" transform="translate(0)"/>
    <path class="a" d="M16.577,14.881c-.014,0-.025,0-.045-.005a.75.75,0,0,0-.112-.224.356.356,0,0,0-.28-.147c-.035,0-.119,0-.147,0l0,.666c0,.1,0,.229,0,.458,0,.177.084.177.266.2a.079.079,0,0,1,.01.044.069.069,0,0,1-.007.037H16.2c-.108,0-.318-.007-.381-.007-.045,0-.276.011-.388.011a.065.065,0,0,1-.01-.04.187.187,0,0,1,.007-.04c.241-.018.266-.063.276-.14,0-.049,0-.248,0-.451v-.552a.963.963,0,0,0-.01-.184,1.189,1.189,0,0,0-.238.016.6.6,0,0,0-.3.332.126.126,0,0,1-.042.005.046.046,0,0,1-.035-.016v-.388c0-.035.007-.044.045-.044l.164,0c.056,0,.276,0,.552,0,.36,0,.633-.009.7-.009.038,0,.063,0,.074.012s0,.035,0,.056v.388A.046.046,0,0,1,16.577,14.881Z" transform="translate(0)"/>
    <path class="a" d="M18.3,15.916c-.455,0-.706-.012-.766-.012l-.22,0c-.059,0-.21.011-.367.011l-.091,0a.061.061,0,0,1-.01-.033.1.1,0,0,1,.007-.044.5.5,0,0,0,.227-.049c.028-.03.042-.094.049-.231,0-.07.007-.147.007-.226,0-.115,0-.255,0-.425,0-.117,0-.187,0-.236,0-.166-.081-.166-.252-.185a.105.105,0,0,1-.01-.04c0-.009.007-.033.017-.038h.081c.059,0,.206,0,.493,0,.266,0,.517.005.577.005l.154,0c.038,0,.052,0,.052.035l.017.343a.066.066,0,0,1-.042.014.134.134,0,0,1-.035,0,.64.64,0,0,0-.227-.262.241.241,0,0,0-.129-.038c-.021,0-.073,0-.206,0-.1,0-.157,0-.168.005s-.018,0-.025.058c0,.037,0,.1,0,.3v.2h.049a.692.692,0,0,0,.171-.018.29.29,0,0,0,.157-.108.634.634,0,0,0,.031-.126.113.113,0,0,1,.049-.011.063.063,0,0,1,.042.012c0,.061-.017.177-.017.323,0,.073.01.234.01.3a.059.059,0,0,1-.042.012.2.2,0,0,1-.045-.005c-.014-.129-.032-.217-.143-.262a.4.4,0,0,0-.164-.032,1.014,1.014,0,0,0-.1.007v.4a.63.63,0,0,0,.017.178c.014.026.049.079.091.084a.77.77,0,0,0,.14.011h.22a.408.408,0,0,0,.161-.025.8.8,0,0,0,.245-.323.09.09,0,0,1,.045-.009.105.105,0,0,1,.042.01v.4C18.385,15.911,18.36,15.916,18.3,15.916Z" transform="translate(0)"/>
    <path class="a" d="M19.367,15.949a.858.858,0,0,1-.35-.091.161.161,0,0,0-.056-.012.3.3,0,0,0-.112.058.1.1,0,0,1-.088-.045c0-.032.028-.126.028-.185,0-.035-.01-.2-.014-.245a.081.081,0,0,1,.066-.031.108.108,0,0,1,.025,0c.032.061.095.226.14.292a.465.465,0,0,0,.336.159.334.334,0,0,0,.245-.073.216.216,0,0,0,.084-.184.2.2,0,0,0-.042-.136.363.363,0,0,0-.157-.112c-.066-.032-.3-.089-.385-.135a.59.59,0,0,1-.21-.149.46.46,0,0,1-.088-.275.43.43,0,0,1,.465-.423.557.557,0,0,1,.36.1,1.02,1.02,0,0,1,.087-.086.084.084,0,0,1,.08.04,1.8,1.8,0,0,0-.024.206c0,.04.024.2.024.224a.149.149,0,0,1-.059.021.113.113,0,0,1-.028-.007c-.042-.073-.08-.2-.126-.262a.341.341,0,0,0-.3-.129A.248.248,0,0,0,19,14.7a.256.256,0,0,0,.185.224c.063.025.14.054.227.081a1.99,1.99,0,0,1,.241.093.411.411,0,0,1,.248.4A.489.489,0,0,1,19.367,15.949Z" transform="translate(0)"/>
    <path class="a" d="M17.186,18.287c-.458,0-.706-.012-.769-.012l-.217,0c-.063,0-.21.011-.371.011l-.091,0a.057.057,0,0,1-.007-.033.2.2,0,0,1,0-.044.541.541,0,0,0,.231-.049.432.432,0,0,0,.049-.231c0-.07,0-.147,0-.226,0-.115,0-.255,0-.425v-.236c0-.166-.084-.166-.255-.185a.209.209,0,0,1-.007-.04c0-.009,0-.033.014-.038h.084c.056,0,.206,0,.493,0,.262,0,.517.005.573.005l.157,0c.035,0,.049,0,.049.035l.021.343c-.021.011-.024.014-.042.014a.1.1,0,0,1-.035,0,.7.7,0,0,0-.227-.262.257.257,0,0,0-.133-.038c-.021,0-.073,0-.2,0-.1,0-.157,0-.171.005s-.014,0-.021.058c0,.037-.007.1-.007.3v.2h.052a.744.744,0,0,0,.171-.017.281.281,0,0,0,.154-.108.624.624,0,0,0,.035-.126.093.093,0,0,1,.049-.011.06.06,0,0,1,.038.012c0,.061-.014.177-.014.323,0,.074.007.234.007.3a.055.055,0,0,1-.042.012.169.169,0,0,1-.042-.005c-.014-.129-.035-.217-.143-.262a.41.41,0,0,0-.168-.031.967.967,0,0,0-.1.007v.4a.491.491,0,0,0,.021.178c.011.026.045.079.091.084a.759.759,0,0,0,.14.01h.217a.427.427,0,0,0,.164-.025.834.834,0,0,0,.241-.323.1.1,0,0,1,.045-.009.118.118,0,0,1,.045.011v.4C17.266,18.281,17.241,18.287,17.186,18.287Z" transform="translate(0)"/>
    <path class="a" d="M19.388,16.85c-.154.005-.287.089-.287.334l0,.778c0,.03.014.25.014.334a.137.137,0,0,1-.063.025.085.085,0,0,1-.038-.025l-1.066-1.147.011.234,0,.423c0,.033.007.112.014.171a.191.191,0,0,0,.077.161.388.388,0,0,0,.2.066.073.073,0,0,1,.01.035.078.078,0,0,1-.014.038h-.115c-.1,0-.175,0-.276,0-.066,0-.161.007-.227.007h-.049a.128.128,0,0,1,0-.035.1.1,0,0,1,.007-.038.374.374,0,0,0,.241-.1.5.5,0,0,0,.025-.182v-.542c0-.087,0-.131-.007-.217A.264.264,0,0,0,17.79,17a.563.563,0,0,0-.074-.079.774.774,0,0,0-.171-.075.114.114,0,0,1-.01-.035.085.085,0,0,1,.01-.038h.038c.032,0,.2.009.322.009h.073a.148.148,0,0,1,.045.03l.79.864c.059.066.136.154.178.21V17.26a1.642,1.642,0,0,0-.007-.173.424.424,0,0,0-.045-.163c-.024-.038-.171-.059-.248-.075a.112.112,0,0,1-.007-.045.13.13,0,0,1,0-.033h.045c.073,0,.192.011.266.011.182,0,.238-.005.329-.005h.059a.075.075,0,0,1,.007.037A.079.079,0,0,1,19.388,16.85Z" transform="translate(0)"/>
    <path class="a" d="M24.371,12.112c-.15.005-.287.089-.287.334v.778c0,.03.01.25.01.334a.128.128,0,0,1-.059.025c-.01,0-.021-.009-.042-.025l-1.066-1.147.014.234,0,.423c0,.033.007.112.01.171a.212.212,0,0,0,.077.161.41.41,0,0,0,.2.066.073.073,0,0,1,.01.035.116.116,0,0,1-.01.038h-.119c-.095,0-.171,0-.276,0-.066,0-.157.007-.224.007h-.049a.158.158,0,0,1-.007-.035.069.069,0,0,1,.011-.038.372.372,0,0,0,.238-.1.439.439,0,0,0,.025-.182v-.542c0-.087,0-.131,0-.217a.286.286,0,0,0-.052-.164.685.685,0,0,0-.077-.079.707.707,0,0,0-.171-.075.309.309,0,0,1-.007-.035.167.167,0,0,1,.007-.038h.042c.028,0,.192.009.318.009h.073a.243.243,0,0,1,.049.03l.79.864c.059.066.136.154.178.21v-.622a1.38,1.38,0,0,0-.011-.173.369.369,0,0,0-.045-.163c-.024-.038-.171-.059-.245-.075a.12.12,0,0,1-.01-.045.066.066,0,0,1,.007-.033h.045c.073,0,.192.01.266.01.178,0,.238-.005.329-.005h.056a.084.084,0,0,1,.011.037A.092.092,0,0,1,24.371,12.112Z" transform="translate(0)"/>
    <path class="a" d="M25.941,13.358a.752.752,0,0,1-1.066.011.771.771,0,0,1-.227-.575.779.779,0,0,1,.227-.572A.757.757,0,0,1,25.406,12a.794.794,0,0,1,.4.112.786.786,0,0,1,.371.67A.838.838,0,0,1,25.941,13.358Zm-.245-1.1a.35.35,0,0,0-.3-.159.32.32,0,0,0-.28.159.867.867,0,0,0-.14.533.92.92,0,0,0,.133.53.336.336,0,0,0,.3.166.348.348,0,0,0,.329-.206.978.978,0,0,0,.1-.484A.874.874,0,0,0,25.7,12.255Z" transform="translate(0)"/>
    <path class="a" d="M28.088,12.117a.307.307,0,0,0-.269.178l-.573,1.278a.113.113,0,0,1-.045.019c-.018,0-.042-.019-.052-.059s-.084-.224-.238-.572l-.182-.418c-.066-.154-.119-.255-.136-.287a.285.285,0,0,0-.241-.14.046.046,0,0,1-.014-.038.054.054,0,0,1,.011-.037h.094c.1,0,.2.005.276.005s.252-.009.36-.009h.059c.014,0,.017.025.017.033a.1.1,0,0,1-.007.042c-.073.007-.227,0-.227.1a.2.2,0,0,0,.014.086l.374.9.318-.743a.506.506,0,0,0,.038-.2c0-.084-.059-.121-.217-.14a.12.12,0,0,1-.007-.035.15.15,0,0,1,.007-.044h.045c.07,0,.14.009.3.009.025,0,.136-.005.189-.005h.108a.064.064,0,0,1,0,.075Z" transform="translate(0)"/>
    <path class="a" d="M23.878,14.881c-.014,0-.024,0-.045-.005a.759.759,0,0,0-.112-.224.357.357,0,0,0-.28-.147c-.035,0-.119,0-.147,0l0,.666c0,.1,0,.229,0,.458,0,.177.084.177.266.2a.078.078,0,0,1,.011.044.069.069,0,0,1-.007.037H23.5c-.108,0-.318-.007-.381-.007-.045,0-.276.011-.388.011a.065.065,0,0,1-.011-.04.2.2,0,0,1,.007-.04c.241-.018.266-.063.276-.14,0-.049,0-.248,0-.451v-.552a.947.947,0,0,0-.011-.184,1.189,1.189,0,0,0-.238.016.6.6,0,0,0-.3.332.126.126,0,0,1-.042.005.046.046,0,0,1-.035-.016v-.388c0-.035.007-.044.045-.044l.164,0c.056,0,.276,0,.552,0,.36,0,.633-.009.7-.009.038,0,.063,0,.073.012s0,.035,0,.056v.388A.046.046,0,0,1,23.878,14.881Z" transform="translate(0)"/>
    <path class="a" d="M25.689,15.914H25.57c-.077,0-.164-.01-.255-.01-.143,0-.325.01-.4.01a.056.056,0,0,1-.011-.038.129.129,0,0,1,.007-.035c.147-.007.206-.032.206-.091a.519.519,0,0,0-.045-.2c-.045-.11-.07-.161-.081-.189-.007-.011-.01-.016-.042-.016h-.475a1.018,1.018,0,0,0-.112.288.328.328,0,0,0-.011.088c0,.049.045.1.213.108a.074.074,0,0,1,.01.042.129.129,0,0,1,0,.035h-.042c-.112,0-.143-.007-.262-.007-.077,0-.262.007-.325.007a.1.1,0,0,1-.007-.032.09.09,0,0,1,.007-.038.324.324,0,0,0,.217-.11,2.53,2.53,0,0,0,.192-.393c.084-.2.185-.456.231-.563.063-.131.084-.175.1-.22.032-.066.066-.133.08-.157a.082.082,0,0,1,.126,0,.461.461,0,0,1,.035.075c.087.208.157.393.266.652.056.131.084.213.143.35.042.086.066.15.108.229.056.114.147.115.238.138,0,.01.014.021.014.035S25.7,15.9,25.689,15.914Zm-.955-1.2h0c-.032.058-.087.189-.108.243-.081.2-.108.262-.122.29h.451C24.916,15.161,24.8,14.883,24.735,14.717Z" transform="translate(0)"/>
    <path class="a" d="M28.025,15.914l-.612-.007h-.168a.1.1,0,0,1-.011-.038.052.052,0,0,1,.014-.038.77.77,0,0,0,.15-.014c.063-.028.088-.089.088-.18V14.549h0l-.322.7c-.035.077-.077.161-.112.245a3.32,3.32,0,0,0-.133.343.045.045,0,0,1-.049.028c-.021,0-.035-.007-.045-.042-.042-.091-.07-.15-.084-.189l-.5-1.108h-.011v.283l.011.708c0,.215.112.317.283.317a.122.122,0,0,1,.014.037.085.085,0,0,1-.011.037c-.011,0-.045,0-.077,0s-.133-.01-.294-.01c-.045,0-.14,0-.213,0h-.1a.132.132,0,0,1-.007-.037.18.18,0,0,1,.007-.033.784.784,0,0,0,.22-.077c.032-.03.059-.094.059-.243v-.776c0-.124-.017-.171-.077-.213a.679.679,0,0,0-.2-.04.1.1,0,0,1-.01-.042.1.1,0,0,1,.01-.04c.06,0,.164.005.269.005h.367a.09.09,0,0,1,.032.038l.451,1.023.081-.2c.07-.164.171-.411.315-.678l.091-.175.573-.009a.072.072,0,0,1,.014.037.074.074,0,0,1-.011.038c-.063.011-.171.011-.224.1-.018.028-.028.056-.028.18v.729c0,.28.07.308.1.329a.537.537,0,0,0,.154.021.079.079,0,0,1,.01.038C28.035,15.9,28.028,15.9,28.025,15.914Z" transform="translate(0)"/>
    <path class="a" d="M23.843,17.252c-.014,0-.025,0-.045-.005a.757.757,0,0,0-.112-.224.356.356,0,0,0-.28-.147c-.035,0-.119,0-.147,0l0,.666c0,.1,0,.229,0,.458,0,.177.084.177.266.2a.079.079,0,0,1,.01.044.069.069,0,0,1-.007.037h-.066c-.108,0-.318-.007-.381-.007-.045,0-.276.011-.388.011a.065.065,0,0,1-.01-.04.189.189,0,0,1,.007-.04c.241-.018.266-.063.276-.14,0-.049,0-.248,0-.451v-.552a.961.961,0,0,0-.01-.183,1.189,1.189,0,0,0-.238.016.6.6,0,0,0-.3.332.126.126,0,0,1-.042.005.046.046,0,0,1-.035-.016v-.388c0-.035.007-.044.045-.044l.164,0c.056,0,.276,0,.552,0,.36,0,.633-.009.7-.009.038,0,.063,0,.073.012s0,.035,0,.056v.388A.046.046,0,0,1,23.843,17.252Z" transform="translate(0)"/>
    <path class="a" d="M25.72,16.855a.306.306,0,0,0-.269.178l-.574,1.278a.113.113,0,0,1-.045.019c-.017,0-.042-.019-.052-.059s-.084-.224-.238-.572l-.182-.418c-.066-.154-.119-.255-.136-.287a.285.285,0,0,0-.241-.14.046.046,0,0,1-.014-.038.054.054,0,0,1,.011-.037h.094c.1,0,.2.005.276.005s.252-.009.36-.009h.059c.014,0,.018.024.018.033a.1.1,0,0,1-.007.042c-.074.007-.227,0-.227.1a.2.2,0,0,0,.014.086l.374.9.318-.743a.5.5,0,0,0,.038-.2c0-.084-.059-.12-.217-.14a.127.127,0,0,1-.007-.035.156.156,0,0,1,.007-.044h.045c.07,0,.14.009.3.009.025,0,.136-.005.189-.005h.108a.062.062,0,0,1,.011.033A.064.064,0,0,1,25.72,16.855Z" transform="translate(0)"/>
    <path class="a" d="M28.056,18.285l-.608-.007h-.171a.085.085,0,0,1-.007-.038.05.05,0,0,1,.01-.038.821.821,0,0,0,.154-.014c.059-.028.084-.089.084-.18v-.883s0-.159,0-.2h-.007l-.318.7c-.038.077-.077.161-.115.245-.07.164-.112.278-.133.343-.007.028-.032.028-.049.028s-.031-.007-.045-.042c-.038-.091-.067-.15-.081-.189L26.266,16.9h-.01v.283l.01.708c0,.215.112.317.287.317a.1.1,0,0,1,.01.037.075.075,0,0,1-.007.037c-.014,0-.045,0-.08,0s-.129-.01-.29-.01c-.049,0-.143,0-.213,0h-.1a.073.073,0,0,1-.01-.037.086.086,0,0,1,.01-.033.827.827,0,0,0,.22-.077.355.355,0,0,0,.056-.243l0-.357,0-.42c0-.124-.014-.171-.077-.213a.678.678,0,0,0-.2-.04.07.07,0,0,1-.014-.042.073.073,0,0,1,.014-.04c.056,0,.164.005.266.005h.371a.085.085,0,0,1,.028.038l.451,1.023.084-.2a6.945,6.945,0,0,1,.315-.678c.028-.059.07-.135.091-.175l.57-.009c.007.012.018.023.018.037a.079.079,0,0,1-.014.038c-.059.01-.168.01-.22.1-.017.028-.031.056-.031.18v.729c0,.28.07.308.1.329a.5.5,0,0,0,.15.021.058.058,0,0,1,.014.038C28.07,18.269,28.063,18.271,28.056,18.285Z" transform="translate(0)"/>
    <path class="a" d="M42.539,8.818,42.476,8.1l-.685.208a17.6,17.6,0,0,1-5.136.762A17.312,17.312,0,0,1,21.86.827L21.364,0l-.5.827A17.31,17.31,0,0,1,6.07,9.073,17.56,17.56,0,0,1,.944,8.315L.257,8.107l-.063.715a50.482,50.482,0,0,0,.881,14.787,51.231,51.231,0,0,0,5.5,14.606,52.3,52.3,0,0,0,4.594,6.853A53.073,53.073,0,0,0,21,54.634l.348.259.348-.259A53,53,0,0,0,31.551,45.1a51.781,51.781,0,0,0,4.593-6.843,51.227,51.227,0,0,0,5.343-13.938l.143-.706A50.8,50.8,0,0,0,42.539,8.818ZM30.255,12.713h.857v1.675h-.857Zm0,4.385h.857v1.677h-.857Zm-8.671-6.159a1.585,1.585,0,0,1,1.451-.61l1.654.234,2.178.287a4.323,4.323,0,0,0,1.892-.309v9.1a5.217,5.217,0,0,1-1.892.281l-2.1-.28L23.035,19.4a2.165,2.165,0,0,0-1.451.458Zm-7.455-.381a4.067,4.067,0,0,0,1.815.3l2.182-.289,1.65-.236a1.587,1.587,0,0,1,1.451.61v8.925a2.175,2.175,0,0,0-1.465-.462l-1.731.243-2.087.278c-1.528,0-1.846-.369-1.85-.372S14.126,11.168,14.13,10.558Zm-1.245,1.107c.164-.033.65-.136.888-.187v8.18c.087.187.462.622,2.171.622l2.164-.285,1.654-.236a1.619,1.619,0,0,1,1.469.612l.049-.028h.255l.049.026a1.584,1.584,0,0,1,1.451-.61l1.654.234,2.178.287c1.734,0,2.164-.456,2.21-.507l.032-8.337.79.22v9.037a24.427,24.427,0,0,1-3.133.245,40.032,40.032,0,0,1-4.182-.294l-.2-.028v.612a3.059,3.059,0,0,1-1.014.185,2.755,2.755,0,0,1-.972-.183v-.614l-.2.028a39.99,39.99,0,0,1-4.171.294,24.39,24.39,0,0,1-3.14-.245Zm-1.2,1.049h.839v1.675h-.839Zm0,4.385h.839v1.677h-.839Zm9.664,36.3a52.013,52.013,0,0,1-9.269-9.056c-.011-.014-.021-.032-.032-.045l9.3-9.049,9.322,9.066c-.014.014-.025.035-.038.052A52,52,0,0,1,21.353,53.4Zm19-29.34A50.168,50.168,0,0,1,35.2,37.543L21.357,24.224,7.525,37.515A50.215,50.215,0,0,1,2.243,23.49H40.465Z" transform="translate(0)"/>
</svg>
